<svg width="110" height="114" viewBox="0 0 110 114" fill="none" xmlns="http://www.w3.org/2000/svg">
<g clip-path="url(#clip0_18_6)">
<path d="M41.3594 87.707C44.6382 90.3614 48.8146 91.9515 53.3626 91.9515C60.8369 91.9515 67.3077 87.6567 70.4398 81.4013" stroke="white" stroke-width="1.91083"/>
<path d="M66.6229 79.6815C63.9918 84.2767 59.0389 87.373 53.3625 87.373C49.9549 87.373 46.8079 86.2571 44.2675 84.371" stroke="white" stroke-width="1.91083"/>
<path d="M25.1188 84.4245L24.8073 86.9602L28.737 87.4425L28.5316 89.1153L19.2382 87.9747L19.4437 86.3019L23.2673 86.7712L23.5787 84.2355L19.7552 83.7662L19.9607 82.0934L29.254 83.234L29.0485 84.9068L25.1188 84.4245ZM24.9889 77.0343L23.6908 76.7403L23.6827 76.8066L25.028 77.4839L29.5625 80.7221L29.4011 82.0365L20.1078 80.8959L20.3132 79.2231L25.1723 79.8195L26.5086 80.1317L26.5167 80.0653L25.1348 79.3567L20.6932 76.1298L20.853 74.8287L30.1464 75.9693L29.9409 77.6421L24.9889 77.0343ZM25.8807 69.774L24.5827 69.4799L24.5745 69.5463L25.9198 70.2235L30.4544 73.4618L30.2929 74.7762L20.9996 73.6356L21.2051 71.9628L26.0642 72.5591L27.4004 72.8714L27.4085 72.805L26.0267 72.0964L21.585 68.8695L21.7449 67.5684L31.0382 68.709L30.8327 70.3818L25.8807 69.774Z" fill="white"/>
<path d="M25.9152 39.3707L25.5973 41.7843L33.342 42.8034L33.122 44.4744L23.8389 43.2527L24.597 37.4973L33.88 38.719L33.6599 40.3899L25.9152 39.3707ZM29.5474 35.1482L24.7147 36.6033L24.9802 34.5876L27.774 33.8625L28.815 33.7432L27.8386 33.3718L25.3348 31.8956L25.5723 30.0921L29.7619 32.802L34.8693 31.2076L34.6125 33.157L31.5971 34.0283L30.5261 34.1707L31.5255 34.5721L34.2126 36.1938L33.9698 38.0371L29.5474 35.1482Z" fill="white"/>
<path d="M49.311 30.9191L55.1335 18.342L64.4693 22.6935L55.6686 41.4006L49.311 30.9191Z" stroke="white" stroke-width="1.1465"/>
<path d="M53.8217 38.5987L57.0318 38.5056" stroke="white" stroke-width="1.91083"/>
<path d="M50.7644 33.6306L59.4515 33.3186" stroke="white" stroke-width="1.91083"/>
<line y1="-0.955414" x2="11.6075" y2="-0.955414" transform="matrix(0.99925 -0.0419956 0.0420198 0.998985 50.3126 29.5736)" stroke="white" stroke-width="1.91083"/>
<line y1="-0.955414" x2="11.6075" y2="-0.955414" transform="matrix(0.99925 -0.0419956 0.0420198 0.998985 52.7323 24.3867)" stroke="white" stroke-width="1.91083"/>
<path d="M54.1956 17.3848L63.8601 11.3668L65.4603 22.6354L54.1956 17.3848Z" stroke="white" stroke-width="1.1465"/>
<path d="M61.4582 40.9415L68.9471 24.2386L78.285 28.5911L73.4923 39.2224L61.4582 40.9415Z" stroke="white" stroke-width="1.1465"/>
<line y1="-0.955414" x2="11.6075" y2="-0.955414" transform="matrix(0.99925 -0.0419956 0.0420198 0.998985 64.0539 36.0598)" stroke="white" stroke-width="1.91083"/>
<line y1="-0.955414" x2="11.6075" y2="-0.955414" transform="matrix(0.99925 -0.0419956 0.0420198 0.998985 62.2293 40.6148)" stroke="white" stroke-width="1.91083"/>
<line y1="-0.955414" x2="11.6075" y2="-0.955414" transform="matrix(0.99925 -0.0419956 0.0420198 0.998985 66.4736 30.8729)" stroke="white" stroke-width="1.91083"/>
<path d="M67.9369 23.871L77.6014 17.853L79.2016 29.1217L67.9369 23.871Z" stroke="white" stroke-width="1.1465"/>
<path d="M88.0016 41.3576L92.163 45.8717L98.3039 45.8478L95.2949 51.1988L97.2153 57.0293L91.1942 55.8223L86.2401 59.4496L85.5279 53.3527L80.5458 49.764L86.1267 47.2029L88.0016 41.3576Z" fill="white"/>
<path d="M77.5412 56.1333L80.6622 59.5188L85.2679 59.5009L83.0111 63.5142L84.4514 67.887L79.9356 66.9818L76.2201 69.7023L75.6859 65.1296L71.9493 62.4381L76.135 60.5172L77.5412 56.1333Z" fill="white"/>
<path d="M89.0699 58.4855L91.1506 60.7426L94.2211 60.7306L92.7166 63.4061L93.6768 66.3214L90.6662 65.7179L88.1892 67.5315L87.8331 64.4831L85.342 62.6887L88.1325 61.4082L89.0699 58.4855Z" fill="white"/>
<path d="M40.5766 15.5234L56.5811 41.93L57.1396 42.8515L58.1912 42.6166L89.5145 35.6196L68.0418 58.6372L67.264 59.4709L67.8595 60.4435L83.9023 86.6435L54.5331 74.6088L53.5698 74.214L52.8631 74.9782L31.3159 98.2756L34.8018 67.7558L34.9312 66.6229L33.8741 66.195L4.69052 54.3826L36.0426 47.5159L37.0952 47.2854L37.2126 46.2143L40.5766 15.5234Z" stroke="white" stroke-width="3"/>
</g>
<defs>
<clipPath id="clip0_18_6">
<rect width="110" height="114" fill="white"/>
</clipPath>
</defs>
</svg>
