<svg width="40" height="40" viewBox="0 0 40 40" fill="none" xmlns="http://www.w3.org/2000/svg">
<path fill-rule="evenodd" clip-rule="evenodd" d="M3.35912 15.7813C3.35912 12.4439 4.75607 9.26574 7.01088 7.01092C7.293 6.72879 7.50673 6.58614 7.79203 6.30768C9.57101 4.56997 13.0623 3.35939 15.7812 3.35939C16.6999 3.35939 17.673 3.46882 18.4691 3.64029C22.0759 4.41682 25.4335 6.94643 26.9795 10.286C27.5152 11.4429 27.9248 12.3366 28.1126 13.6843C28.482 16.3333 28.2988 18.7628 27.1104 21.1732C26.5203 22.3704 25.6099 23.7121 24.6609 24.6611L23.9252 25.3318C22.1389 26.9205 18.9718 28.2816 16.4842 28.2816C14.6693 28.2816 14.3071 28.2977 12.5305 27.8602C12.0498 27.7418 11.8385 27.6299 11.4155 27.4909C10.9855 27.3497 10.7464 27.1992 10.3387 27.0051L9.37023 26.4892C7.8912 25.6083 6.42464 24.2412 5.48251 22.7988C4.57092 21.4031 4.02548 20.1448 3.6542 18.5332C3.4837 17.7926 3.35888 16.7158 3.35888 15.7815L3.35912 15.7813ZM14.9785 0H16.9151C17.597 0.0447007 18.2734 0.137033 18.9371 0.281394C19.8516 0.479982 21.3179 0.904028 22.136 1.3012C23.1462 1.79169 22.9374 1.63243 23.9885 2.26117C25.6341 3.2458 26.8666 4.36088 28.1016 5.80424L29.0003 7.01507C29.9725 8.55981 30.2458 9.10892 30.8303 10.7321C31.8504 13.5643 31.9977 17.4601 31.0257 20.3227C30.4029 22.1576 29.8945 23.3806 28.7497 24.9999C28.5555 25.2744 28.3681 25.4691 28.203 25.7813C28.4619 26.168 37.7369 35.3543 38.8085 36.4259C39.2367 36.8541 40 37.4259 40 38.2032C40 39.2682 39.3239 40 38.4374 40C37.3698 40 37.0891 39.4719 36.3866 38.7696C35.3087 37.6917 26.1588 28.456 25.7811 28.2032C25.4712 28.3673 25.2496 28.5618 24.9558 28.784C23.1274 30.1683 20.2673 31.235 17.9456 31.5394C14.5992 31.9781 11.6026 31.4238 8.69777 29.9739C8.33552 29.7931 8.1235 29.679 7.78715 29.4782C5.58633 28.1648 4.34351 26.8807 2.74455 24.7554C2.24894 24.0963 1.82172 23.2597 1.48342 22.501C0.276752 19.7963 0 18.3331 0 15.2344C0 12.2863 1.34003 8.78111 2.92409 6.67408C3.1918 6.31818 3.4495 5.92174 3.73089 5.6059C4.19207 5.08879 4.64444 4.57021 5.1679 4.15228C5.35867 3.99985 5.45809 3.85525 5.64764 3.69452C8.15159 1.57307 11.5522 0.218862 14.9788 0L14.9785 0Z" fill="white"/>
</svg>
